/* XPM */
static char *a067f193341b47a68875d1cf729a38bfE4KekAlYJAax3Khm[] = {
/* columns rows colors chars-per-pixel */
"32 32 104 2 ",
"   c #000000",
".  c #060807",
"X  c #0A0907",
"o  c #02030B",
"O  c #0C0C0C",
"+  c #150301",
"@  c #1C0302",
"#  c #130C0C",
"$  c #190B0B",
"%  c #14110F",
"&  c #030614",
"*  c #060A17",
"=  c #0B0B14",
"-  c #040719",
";  c #05091C",
":  c #090C1D",
">  c #0D1019",
",  c #151515",
"<  c #1C1414",
"1  c #161817",
"2  c #1B1A16",
"3  c #161719",
"4  c #19171C",
"5  c #1B1B1B",
"6  c #230605",
"7  c #210D0C",
"8  c #2E0E0F",
"9  c #370100",
"0  c #271211",
"q  c #2C1110",
"w  c #321011",
"e  c #21211F",
"r  c #060B24",
"t  c #0A0D23",
"y  c #070D2C",
"u  c #080E2D",
"i  c #0A102B",
"p  c #161622",
"a  c #121528",
"s  c #1C1E2D",
"d  c #080E30",
"f  c #252424",
"g  c #292523",
"h  c #26242B",
"j  c #37322C",
"k  c #393337",
"l  c #3F3830",
"z  c gray23",
"x  c #443B36",
"c  c #4C443E",
"v  c #514743",
"b  c #544A44",
"n  c #574E49",
"m  c #5D544B",
"M  c #584D51",
"N  c #5B5B5B",
"B  c #63594F",
"V  c #645951",
"C  c #6A5D54",
"Z  c #6F6158",
"A  c #71645B",
"S  c #776A61",
"D  c #7C6E63",
"F  c #767676",
"G  c #807267",
"H  c #89786E",
"J  c #8C7C70",
"K  c #938275",
"L  c #9A887C",
"P  c #8C8B8B",
"I  c #9E8D83",
"U  c #909090",
"Y  c #9B9B9B",
"T  c #A18E80",
"R  c #A49183",
"E  c #A89586",
"W  c #AA9789",
"Q  c #B49E8E",
"!  c #B5A08D",
"~  c #B6A190",
"^  c #B8A392",
"/  c #BBA594",
"(  c #BFAA99",
")  c #C0AB9A",
"_  c #C6AF9F",
"`  c #C7B09E",
"'  c #C7B0A0",
"]  c #C8B1A1",
"[  c #CCB5A3",
"{  c #D0B6A5",
"}  c #DCC1AE",
"|  c #E3C8B3",
" . c #E4C8B3",
".. c #E7CCB7",
"X. c #EBCFBA",
"o. c #ECD0BB",
"O. c #EFD3BE",
"+. c #F0D4BF",
"@. c #F1D6C1",
"#. c #F4D5C1",
"$. c #F4D7C5",
"%. c #F4D8C3",
"&. c #F5D9C4",
"*. c gray91",
/* pixels */
"                                                                ",
"                                                                ",
"                          o o o o o o o                         ",
"                    o ; r y y u y y u r ; o                     ",
"              o ; y u u u u u u u u u u u u ; o                 ",
"            & y u u u u r y d u u u u u u d u y ;               ",
"          ; y r u u u y ; u u u u y u u u u u u u r o           ",
"        ; u r ; d u u p * u u u u p a u u y u u u u y o         ",
"      & u u & r u u i n ; u u u y g M u u r ; u u u d r         ",
"    o r u u o y u u h Z ; u u u r b I i u y & u u u u u o       ",
"    & i u y o u u u c V r u u u r D { s u u o u u u u u &       ",
"    r u u u o & & & A m r u u u t R ) h y u & y u u u u r       ",
"  o y u u u f P 5   % g r u u u t m N X   & o r u u u u r       ",
"    o y u r z P .       ; y r r * Y U .     o r u u d y o       ",
"    o y u ;             f D K R l ,           r u u u r         ",
"    o y u &             c #.%.%.H             ; u u u &         ",
"    o r u = v         X T +...O.[ ,         X : u u u o         ",
"      r u = } B . X j J ' T Z Q ` Z .     2 L k u u y o         ",
"      r u = G _ / / ]  .%.&.&.@.&.| ( K K ^ ] Z ; u y o         ",
"      ; u & V o.%.$.%.%.X.~ R W +.#.%.%.@.) b m o u y o         ",
"      o u ; ; 4 b Q @.%.%.&.&.$.+.+.@.%.E #     ; y r o         ",
"        y u & - - O Q %.$.&.^ C c c S ! g       o o o           ",
"        ; ; o o r r > v J x # 3 3 3 , X X X X . .               ",
"                    o o   . , , O 3 O 5 f f f f f 5             ",
"                          . , % # $ $ 5 f f f f f # @           ",
"                            7 8 q q w < f f f f < 9 +           ",
"                            , , , , , O f f f f @ $ 5           ",
"                            5 , 1 1 O , f f f 5 $ f O           ",
"                            5 0 6 6 , f ,       Y *.N           ",
"                            5 f     e f X       F P X           ",
"                            5 ,     O ,                         ",
"                                                                "
};
