/* XPM */
static char *f08e17d3bc124877e57d85962262fcc2lcQiL4D64P4rDNBz[] = {
/* columns rows colors chars-per-pixel */
"32 32 24 1 ",
"  c black",
". c #191919",
"X c #630000",
"o c #7F0000",
"O c #424141",
"+ c #555555",
"@ c #777777",
"# c #797979",
"$ c #7C7C7C",
"% c gray50",
"& c #827F7F",
"* c #828181",
"= c #858383",
"- c #868585",
"; c #888484",
": c #888585",
"> c gray54",
", c #8C8A8A",
"< c #8D8C8C",
"1 c #908D8D",
"2 c gray68",
"3 c gray71",
"4 c #BCBCBC",
"5 c gray77",
/* pixels */
"**************O+O<<<<<<<<<<<<<<O",
"*>>>-**********O<*----->---->><O",
"*>>>--*********O<**%****-->>>-<O",
"*>><>>:----=***O<**:::--:>,<>><O",
"*<><,>:-----***O<**::::>:>>>-><O",
"*<><<,>:--::***O<*-,>>:::>,,--<O",
"*222222222222222222222222222XXXO",
"*233333333333333333333333333ooXO",
"*232222222233333333333333333ooXO",
"*232oo..oo233..............3332O",
"*232o.  .o233333333333333333332O",
"*232o.  .o233.......33333333332O",
"*242o.  .o244444444444444444442O",
"*342oo..oo244444444444444444443O",
"*352......255...........5555553O",
"O352222222255555555555555555553O",
"*355555555555555555555555555553O",
"*ooooooooooooooooooooooooooooooO",
"*XXXXXXXXXXXXXXXXXXXXXXXXXXXXXXO",
"*>><,>>::---%**O*##**&&&&=:>*-*O",
"*<><<>>:::::*%*O*%%****&&*=:*-*O",
"*<>1<<,>::>>***O*@@*====*==-***O",
"*>><<<,>>::>***O*%#&&&*=-:::***O",
"*<>1<,>>:>>>***O*%%**&&&*=:>--*O",
"*>>1<<,>:>::***O*%%====&&*=:*-*O",
"*>><,,,>>>>>***O*%%========:***O",
"*>>,,>:::>>>***O*%%====&*=::***O",
"*>><<,>---::***O*##*=====-::*-*O",
"*>----***&%%%**O*####%%%%%***-*O",
"*>---**********O**%%%%%##%%**-*O",
"**************O+O**************O",
"OOOOOOOOOOOOOOO+OOOOOOOOOOOOOOOO"
};
