/* XPM */
static char *_ac165b32b5c4fc2aeaaaad621274fe2vRv2Gh4EDKNTINvG[] = {
/* columns rows colors chars-per-pixel */
"32 32 16 1 ",
"  c #424141",
". c #555555",
"X c #777777",
"o c #797979",
"O c #7C7C7C",
"+ c gray50",
"@ c #827F7F",
"# c #828181",
"$ c #858383",
"% c #868585",
"& c #888484",
"* c #888585",
"= c gray54",
"- c #8C8A8A",
"; c #8D8C8C",
": c #908D8D",
/* pixels */
"############## . ;;;;;;;;;;;;;; ",
"#===%########## ;#%%%%%=%%%%==; ",
"#===%%######### ;##+####%%===%; ",
"#==;==*%%%%$### ;##***%%*=-;==; ",
"#;=;-=*%%%%%### ;##****=*===%=; ",
"#;=;;-=*%%**### ;#%-==***=--%%; ",
"#==;--=**%%*### ;##==---***-==; ",
"#;=;-==*%***### ;+#***==-;;-%%; ",
"#==;--=*%*%%### ;#+%$%*==-;:==; ",
"#==-===*****### ;##=**%%*---==; ",
"#==-==%%%***### ;##*====**=-==; ",
"#==;-=*%$$%%### ;##==**=----%=; ",
"#==%%%######### ;#########%%==; ",
"#==%%########## ;###++##%%%%==; ",
"############### ;;;;;;;;;;;;;;; ",
"               .                ",
"############### ############### ",
"#==%####++++++# #XXooo++o++##%# ",
"#==%%###++###+# #ooooooo++##@## ",
"#==;-==**%%%+## #oo##@@@@$*=#$# ",
"#;=;;==*****#+# #++@###@@#$*#%# ",
"#;=:;;-=**==### #XX@$$$$#$$%### ",
"#==;;;-==**=### #+o@@@#$%***### ",
"#;=:;-==*===### #++@@@@@#$*=%%# ",
"#==:;;-=*=**### #++$$$$#@#$*#%# ",
"#==;---=====### #++$$$$$$$$*### ",
"#==--=***===### #o+$$$$@#$**### ",
"#==;;-=%%%**### #oo#$$$$$$**#%# ",
"#=%%%%###@+++## #oooo+++++###%# ",
"#=%%%########## ##+++++oo++##%# ",
"############## . ############## ",
"               .                "
};
