/* XPM */
static char *_feb1587cfb844f4e7c11ab12ed68613yfiZ00WbpnPbc6PE[] = {
/* columns rows colors chars-per-pixel */
"32 32 20 1 ",
"  c #161616",
". c #191919",
"X c #1E1E1E",
"o c #232323",
"O c #2A2A2A",
"+ c gray22",
"@ c #3F3F3F",
"# c gray25",
"$ c #464646",
"% c #555555",
"& c DimGray",
"* c gray48",
"= c #7C7C7C",
"- c #828181",
"; c #838383",
": c #868585",
"> c #898686",
", c gray54",
"< c #8C8A8A",
"1 c #8D8C8C",
/* pixels */
"--------O&OOOOOOOOOOO&O11111111#",
"-,,,:---O&O$$$$$$$$$O&O,::::,,1#",
"-,,,::--O#OOOOOOOOOOO#O-::,,,:1#",
"-,,1,,>:O.O.........O.O:>,<1,,1#",
"-1,1<,##O.OOOOOOOOOOO.O##,,,:,1#",
"-1,11#..o.O$$$$$$$$$O.o..#<<::1#",
"-,,1#...o.ooooooooooo.o...#<,,1#",
"-1,#....o.o.........o.o....#::1#",
"-,#.....o.ooooooooooo.o.....#,1#",
"-,#.....X.o@@@@@@@@@o.X.....#,1#",
"-#......X.XXXXXXXXXXX.X......#1#",
"-#......X.X.........X.X......#1#",
"-#......X.XXXXXXXXXXX.X......#1#",
"-#...... .X+++++++++X. ......#1#",
"-#...... .           . ......#1#",
"##...... . ......... . ......###",
"-#...... .           . ......#-#",
"-#........ +++++++++ ........#-#",
"-#...........................#-#",
"-#...........................#-#",
"-#...........................#-#",
"-#...........................#-#",
"-,#.........................#--#",
"-1#.........................#:-#",
"-,,#.......................#-:-#",
"-,,1#.....................#>---#",
"-,,<<#...................#>>---#",
"-,,11<##...............##:>>-:-#",
"-,::::--##...........##===---:-#",
"-,:::-----###########==**==--:-#",
"--------------#%#--------------#",
"###############%################"
};
