/* XPM */
static char *cee6d77600da48cdf7e12ad27f758fb1oWvl68JeKLWQSlyR[] = {
/* columns rows colors chars-per-pixel */
"32 32 23 1 ",
"  c gray4",
". c gray20",
"X c gray22",
"o c #7F0000",
"O c gray25",
"+ c #555555",
"@ c gray48",
"# c gray50",
"$ c #910000",
"% c #A80000",
"& c #B50000",
"* c #828181",
"= c #838383",
"- c gray52",
"; c #898585",
": c gray54",
"> c #8E8B8B",
", c gray55",
"< c #908D8D",
"1 c gray82",
"2 c gray86",
"3 c #E2E2E2",
"4 c white",
/* pixels */
"**oo...11111o1o1oo1o11111...oo,O",
"*:oo...2$$$$$2$2$$2$$$2$$...o$,O",
"*:ooX.X2$$$$$$2$$$2$$$2$$X.Xoo,O",
"*:ooOXO3333%%%3%%%3%%%3%%OXOoo,O",
"*,oo$O%3%%%%%%3%%%3%%%3%%%O$oo,O",
"*,oo$%%4&&&&&4&4&&4&&&4&&%%$oo,O",
"*:oo$%%44444&4&4&&4&&&4&&%%$oo,O",
"*,oo$%%&&&&&&&&&&&&&&&&&&%%$oo,O",
"*:oo$%%&&&&&&&&&&&&&&&&&&%%$oo,O",
"*:oo$%%&&&&&&&&&&&&&&&&&&%%$oo,O",
"*:oo$%%&&&&&&&&&&&&&&&&&&%%$$o,O",
"*:oo$%%&&&&&&&&&&&&&&&&&&%%$oo,O",
"*:oo$%%&&&&&444&&&44&&&&&%%$$o,O",
"*:        &4&&4&&4&4&&        ,O",
"**11233444&4&&4&&&&4&&44433211,O",
"OO11233444&4&&4&&&&4&&44433211OO",
"**        &4&&4&&&&4&&        *O",
"*:oo$%%&&&&4&&4&&&&4&&&&&%%$oo*O",
"*:oo$%%&&&&444&&&4444&&&&%%$oo*O",
"*:oo$%%&&&&&&&&&&&&&&&&&&%%$oo*O",
"*,oo$%%&&&&&&&&&&&&&&&&&&%%$oo*O",
"*,oo$%%&&&&&&&&&&&&&&&&&&%%$oo*O",
"*::o$%%&&&&&&&&&&&&&&&&&&%%$o**O",
"*,:o$%%&&&&&&&&&&&&&&&&&&%%$o-*O",
"*::<o$%%&&&&&&&&&&&&&&&&%%$o*-*O",
"*::,o$%%&&&&&&&&&&&&&&&%%$$o***O",
"*::>>o$%%&&&&&&&&&&&&%%%%$o;***O",
"*::,,oo$%%%%%%%%%%%%%%%$$o;;*-*O",
"*:----oo$$%%%%%%%%%%%$$oo#***-*O",
"*:---***oo$$$$$$$$$$$oo@@##**-*O",
"**********ooooooooooo**********O",
"OOOOOOOOOOOOOOO+OOOOOOOOOOOOOOOO"
};
