/* XPM */
static char *_6421ad94b584cfdc5eccaf55c9335b2JXgELV4etWN417T0[] = {
/* columns rows colors chars-per-pixel */
"32 32 8 1 ",
"  c black",
". c #2A2A2A",
"X c #464646",
"o c gray33",
"O c #5B5B5B",
"+ c #626262",
"@ c DimGray",
"# c gray66",
/* pixels */
"                                ",
" .XXXXXXXXXXXXXXXXXXXXXXXXXXXX. ",
" Xo#oooooooooooooooooooooooo#oX ",
" X#o#oOOOOOOOOOOOOOOOOOOOOo#o#X ",
" Xo#oO++@@@@@@@@@@@@@@@@++Oo#oX ",
" XooO++..................++OooX ",
" XoO@+.XXXXXXXXXXXXXXXXXX.+@OoX ",
" XoO@@.XooooooooooooooooX.@@OoX ",
" XoO@@.Xo@@@@@@@@@@@@@@oX.@@OoX ",
" XoO@@.Xo@@@@@@@@@@@@@@oX.@@OoX ",
" XoO@@.Xo@@@@@@@@@@@@@@oX.@@OoX ",
" XoO@@.Xo@@@@@@@@@@@@@@oX.@@OoX ",
" XoO@@.XooooooooooooooooX.@@OoX ",
" XoO@@.X+++++++++++++++oX.@@OoX ",
" XoOOO.X+@@@@@@@@@@@@@@oX.OOOoX ",
" Xo....X@@@@@@@@@@@@@@@@X....oX ",
" X..XXXXooooooooooooooooXXXX..X ",
" Xo....X@@@@@@@@@@@@@@@@X....oX ",
" XoOOO.X+@@@@@@@@@@@@@@oX.OOOoX ",
" XoO@@.X+++++++++++++++oX.@@OoX ",
" XoO@@.XooooooooooooooooX.@@OoX ",
" XoO@@.Xo@@@@@@@@@@@@@@oX.@@OoX ",
" XoO@@.Xo@@@@@@@@@@@@@@oX.@@OoX ",
" XoO@@.Xo@@@@@@@@@@@@@@oX.@@OoX ",
" XoO@@.XooooooooooooooooX.@@OoX ",
" XoO@+.XXXXXXXXXXXXXXXXXX.+@OoX ",
" Xoo+++..................+++ooX ",
" Xo#oO++@@@@@@@@@@@@@@@@++Oo#oX ",
" X#o#oOOOOOOOOOOOOOOOOOOOOo#o#X ",
" Xo#oooooooooooooooooooooooo#oX ",
" .XXXXXXXXXXXXXXXXXXXXXXXXXXXX. ",
"                                "
};
